<svg width="139" height="20" viewBox="0 0 139 20" fill="none" xmlns="http://www.w3.org/2000/svg">
<path d="M10.85 5V4.15H9.15V5H10.85ZM9.15 6V6.85H10.85V6H9.15ZM10.85 14V13.15H9.15V14H10.85ZM9.15 15V15.85H10.85V15H9.15ZM13 6.85H13.85V5.15H13V6.85ZM9 6V5.15V6ZM11 14V13.15V14ZM7 13.15H6.15V14.85H7V13.15ZM11 10V9.15V10ZM9 10V9.15V10ZM8.23463 6.15224L7.90935 5.36694L7.90935 5.36694L8.23463 6.15224ZM7.15224 7.23463L6.36694 6.90935L7.15224 7.23463ZM7.15224 8.76537L6.36694 9.09065L7.15224 8.76537ZM7.58579 9.41421L8.18683 8.81317L7.58579 9.41421ZM8.23463 9.84776L7.90935 10.6331L8.23463 9.84776ZM11.7654 13.8478L12.0906 14.6331L11.7654 13.8478ZM12.8478 12.7654L13.6331 13.0906L12.8478 12.7654ZM12.8478 11.2346L13.6331 10.9094L12.8478 11.2346ZM12.4142 10.5858L11.8132 11.1868L12.4142 10.5858ZM11.7654 10.1522L12.0906 9.36694L11.7654 10.1522ZM18.15 10C18.15 14.5011 14.5011 18.15 10 18.15V19.85C15.44 19.85 19.85 15.44 19.85 10H18.15ZM10 18.15C5.49888 18.15 1.85 14.5011 1.85 10H0.15C0.15 15.44 4.55999 19.85 10 19.85V18.15ZM1.85 10C1.85 5.49888 5.49888 1.85 10 1.85V0.15C4.55999 0.15 0.15 4.55999 0.15 10H1.85ZM10 1.85C14.5011 1.85 18.15 5.49888 18.15 10H19.85C19.85 4.55999 15.44 0.15 10 0.15V1.85ZM9.15 5V6H10.85V5H9.15ZM9.15 14V15H10.85V14H9.15ZM13 5.15H9V6.85H13V5.15ZM11 13.15H7V14.85H11V13.15ZM11 9.15H9V10.85H11V9.15ZM9 5.15C8.62573 5.15 8.25513 5.22372 7.90935 5.36694L8.55991 6.93754C8.69944 6.87975 8.84898 6.85 9 6.85V5.15ZM7.90935 5.36694C7.56357 5.51017 7.24939 5.7201 6.98475 5.98475L8.18683 7.18683C8.29361 7.08004 8.42039 6.99533 8.55991 6.93754L7.90935 5.36694ZM6.98475 5.98475C6.7201 6.24939 6.51017 6.56357 6.36694 6.90935L7.93754 7.55991C7.99533 7.42039 8.08004 7.29361 8.18683 7.18683L6.98475 5.98475ZM6.36694 6.90935C6.22372 7.25513 6.15 7.62573 6.15 8H7.85C7.85 7.84898 7.87975 7.69944 7.93754 7.55991L6.36694 6.90935ZM6.15 8C6.15 8.37427 6.22372 8.74487 6.36694 9.09065L7.93754 8.44009C7.87975 8.30056 7.85 8.15102 7.85 8H6.15ZM6.36694 9.09065C6.51017 9.43643 6.7201 9.75061 6.98475 10.0153L8.18683 8.81317C8.08004 8.70638 7.99533 8.57961 7.93754 8.44009L6.36694 9.09065ZM6.98475 10.0153C7.24939 10.2799 7.56357 10.4898 7.90935 10.6331L8.55991 9.06246C8.42039 9.00467 8.29361 8.91996 8.18683 8.81317L6.98475 10.0153ZM7.90935 10.6331C8.25513 10.7763 8.62573 10.85 9 10.85V9.15C8.84898 9.15 8.69944 9.12025 8.55991 9.06246L7.90935 10.6331ZM11 14.85C11.3743 14.85 11.7449 14.7763 12.0906 14.6331L11.4401 13.0625C11.3006 13.1203 11.151 13.15 11 13.15V14.85ZM12.0906 14.6331C12.4364 14.4898 12.7506 14.2799 13.0153 14.0153L11.8132 12.8132C11.7064 12.92 11.5796 13.0047 11.4401 13.0625L12.0906 14.6331ZM13.0153 14.0153C13.2799 13.7506 13.4898 13.4364 13.6331 13.0906L12.0625 12.4401C12.0047 12.5796 11.92 12.7064 11.8132 12.8132L13.0153 14.0153ZM13.6331 13.0906C13.7763 12.7449 13.85 12.3743 13.85 12H12.15C12.15 12.151 12.1203 12.3006 12.0625 12.4401L13.6331 13.0906ZM13.85 12C13.85 11.6257 13.7763 11.2551 13.6331 10.9094L12.0625 11.5599C12.1203 11.6994 12.15 11.849 12.15 12H13.85ZM13.6331 10.9094C13.4898 10.5636 13.2799 10.2494 13.0153 9.98475L11.8132 11.1868C11.92 11.2936 12.0047 11.4204 12.0625 11.5599L13.6331 10.9094ZM13.0153 9.98475C12.7506 9.7201 12.4364 9.51017 12.0906 9.36694L11.4401 10.9375C11.5796 10.9953 11.7064 11.08 11.8132 11.1868L13.0153 9.98475ZM12.0906 9.36694C11.7449 9.22372 11.3743 9.15 11 9.15V10.85C11.151 10.85 11.3006 10.8797 11.4401 10.9375L12.0906 9.36694Z" fill="white"/>
<path d="M32.4574 9.41726L30.6996 9.60902C30.6498 9.43146 30.5628 9.26456 30.4386 9.10831C30.3178 8.95206 30.1545 8.82599 29.9485 8.73011C29.7425 8.63423 29.4904 8.58629 29.1921 8.58629C28.7908 8.58629 28.4535 8.6733 28.18 8.8473C27.9101 9.02131 27.777 9.2468 27.7805 9.52379C27.777 9.76172 27.864 9.95526 28.0415 10.1044C28.2226 10.2536 28.5209 10.3761 28.9364 10.4719L30.332 10.7702C31.1062 10.9371 31.6815 11.2017 32.0579 11.5639C32.4378 11.9261 32.6296 12.4002 32.6332 12.9862C32.6296 13.5011 32.4787 13.9556 32.1804 14.3498C31.8856 14.7404 31.4755 15.0458 30.9499 15.266C30.4243 15.4862 29.8207 15.5962 29.1388 15.5962C28.1374 15.5962 27.3313 15.3867 26.7205 14.9677C26.1097 14.5451 25.7457 13.9574 25.6285 13.2045L27.5089 13.0234C27.5941 13.3928 27.7752 13.6715 28.0522 13.8597C28.3292 14.0479 28.6896 14.142 29.1335 14.142C29.5916 14.142 29.9592 14.0479 30.2361 13.8597C30.5167 13.6715 30.6569 13.4389 30.6569 13.1619C30.6569 12.9276 30.5664 12.734 30.3853 12.5813C30.2077 12.4286 29.9307 12.3114 29.5543 12.2298L28.1587 11.9368C27.3739 11.7734 26.7933 11.4982 26.4169 11.1112C26.0405 10.7205 25.854 10.2269 25.8576 9.63033C25.854 9.12607 25.9908 8.68928 26.2677 8.31996C26.5483 7.94709 26.9371 7.65945 27.4343 7.45703C27.935 7.25107 28.5121 7.14808 29.1655 7.14808C30.1243 7.14808 30.8789 7.35227 31.4293 7.76065C31.9833 8.16903 32.326 8.72124 32.4574 9.41726Z" fill="white"/>
<path d="M35.9117 15.4364L33.6 7.25462H35.5655L37.0037 13.0075H37.0783L38.5485 7.25462H40.4927L41.9629 12.9755H42.0428L43.4597 7.25462H45.4306L43.1134 15.4364H41.1053L39.5712 9.90732H39.4593L37.9252 15.4364H35.9117Z" fill="white"/>
<path d="M46.7769 15.4364V7.25462H48.7052V15.4364H46.7769ZM47.7463 6.0934C47.441 6.0934 47.1782 5.99219 46.958 5.78977C46.7378 5.58381 46.6277 5.337 46.6277 5.04936C46.6277 4.75817 46.7378 4.51136 46.958 4.30895C47.1782 4.10298 47.441 4 47.7463 4C48.0553 4 48.3181 4.10298 48.5347 4.30895C48.7549 4.51136 48.865 4.75817 48.865 5.04936C48.865 5.337 48.7549 5.58381 48.5347 5.78977C48.3181 5.99219 48.0553 6.0934 47.7463 6.0934Z" fill="white"/>
<path d="M54.7736 7.25462V8.74609H50.0701V7.25462H54.7736ZM51.2313 5.29439H53.1596V12.9755C53.1596 13.2347 53.1987 13.4336 53.2768 13.5721C53.3585 13.707 53.465 13.7994 53.5964 13.8491C53.7278 13.8988 53.8734 13.9237 54.0332 13.9237C54.1539 13.9237 54.264 13.9148 54.3634 13.897C54.4664 13.8793 54.5446 13.8633 54.5978 13.8491L54.9228 15.3565C54.8198 15.392 54.6724 15.4311 54.4806 15.4737C54.2924 15.5163 54.0616 15.5412 53.7882 15.5483C53.3052 15.5625 52.8702 15.4897 52.4831 15.3299C52.096 15.1665 51.7889 14.9144 51.5616 14.5735C51.3379 14.2326 51.2278 13.8065 51.2313 13.2951V5.29439Z" fill="white"/>
<path d="M59.8673 15.5962C59.0505 15.5962 58.3492 15.4169 57.7632 15.0582C57.1808 14.6996 56.7316 14.2042 56.4156 13.5721C56.1031 12.9364 55.9468 12.2049 55.9468 11.3775C55.9468 10.5465 56.1066 9.81321 56.4262 9.17756C56.7458 8.53835 57.1968 8.04119 57.7792 7.68608C58.3651 7.32741 59.0576 7.14808 59.8566 7.14808C60.5207 7.14808 61.1084 7.2706 61.6198 7.51562C62.1347 7.7571 62.5448 8.09979 62.8502 8.54368C63.1556 8.98402 63.3296 9.49893 63.3722 10.0884H61.5292C61.4546 9.69425 61.2771 9.36577 60.9965 9.10298C60.7195 8.83665 60.3484 8.70348 59.8832 8.70348C59.4891 8.70348 59.1428 8.81001 58.8445 9.02308C58.5462 9.2326 58.3136 9.53445 58.1467 9.92862C57.9834 10.3228 57.9017 10.7951 57.9017 11.3455C57.9017 11.9031 57.9834 12.3825 58.1467 12.7837C58.3101 13.1815 58.5391 13.4886 58.8339 13.7053C59.1322 13.9183 59.482 14.0249 59.8832 14.0249C60.1673 14.0249 60.4212 13.9716 60.645 13.8651C60.8722 13.755 61.0622 13.5969 61.2149 13.391C61.3676 13.185 61.4724 12.9347 61.5292 12.6399H63.3722C63.3261 13.2188 63.1556 13.7319 62.8609 14.1793C62.5661 14.6232 62.1649 14.9712 61.657 15.2234C61.1492 15.4719 60.5526 15.5962 59.8673 15.5962Z" fill="white"/>
<path d="M66.8839 10.6424V15.4364H64.9556V4.52734H66.8413V8.64489H66.9371C67.1289 8.18324 67.4254 7.81925 67.8267 7.55291C68.2315 7.28303 68.7464 7.14808 69.3714 7.14808C69.9396 7.14808 70.435 7.26705 70.8576 7.50497C71.2802 7.7429 71.6069 8.09091 71.8377 8.54901C72.0721 9.0071 72.1893 9.56641 72.1893 10.2269V15.4364H70.261V10.5252C70.261 9.97479 70.119 9.54688 69.8349 9.24148C69.5543 8.93253 69.1601 8.77805 68.6523 8.77805C68.3114 8.77805 68.006 8.85263 67.7361 9.00178C67.4698 9.14737 67.2603 9.35866 67.1076 9.63565C66.9584 9.91264 66.8839 10.2482 66.8839 10.6424Z" fill="white"/>
<path d="M75.9126 12.869L75.9073 10.5412H76.2163L79.1566 7.25462H81.4098L77.793 11.2816H77.3935L75.9126 12.869ZM74.1548 15.4364V4.52734H76.0831V15.4364H74.1548ZM79.2898 15.4364L76.6264 11.7131L77.9261 10.3548L81.5962 15.4364H79.2898Z" fill="white"/>
<path d="M82.6949 15.4364V7.25462H84.6231V15.4364H82.6949ZM83.6643 6.0934C83.3589 6.0934 83.0961 5.99219 82.876 5.78977C82.6558 5.58381 82.5457 5.337 82.5457 5.04936C82.5457 4.75817 82.6558 4.51136 82.876 4.30895C83.0961 4.10298 83.3589 4 83.6643 4C83.9733 4 84.2361 4.10298 84.4527 4.30895C84.6728 4.51136 84.7829 4.75817 84.7829 5.04936C84.7829 5.337 84.6728 5.58381 84.4527 5.78977C84.2361 5.99219 83.9733 6.0934 83.6643 6.0934Z" fill="white"/>
<path d="M88.5343 10.6424V15.4364H86.606V7.25462H88.449V8.64489H88.5449C88.7331 8.18679 89.0332 7.8228 89.4451 7.55291C89.8606 7.28303 90.3737 7.14808 90.9845 7.14808C91.5492 7.14808 92.041 7.26882 92.46 7.5103C92.8826 7.75178 93.2093 8.10156 93.4402 8.55966C93.6745 9.01776 93.7899 9.57351 93.7864 10.2269V15.4364H91.8581V10.5252C91.8581 9.97834 91.7161 9.55043 91.432 9.24148C91.1514 8.93253 90.7626 8.77805 90.2654 8.77805C89.9281 8.77805 89.628 8.85263 89.3652 9.00178C89.106 9.14737 88.9018 9.35866 88.7527 9.63565C88.6071 9.91264 88.5343 10.2482 88.5343 10.6424Z" fill="white"/>
<path d="M99.3049 18.6751C98.6124 18.6751 98.0176 18.581 97.5204 18.3928C97.0232 18.2081 96.6237 17.9595 96.3219 17.647C96.0201 17.3345 95.8105 16.9883 95.6934 16.6083L97.4299 16.1875C97.508 16.3473 97.6216 16.5053 97.7708 16.6616C97.9199 16.8214 98.1206 16.9528 98.3727 17.0558C98.6284 17.1623 98.9497 17.2156 99.3368 17.2156C99.8837 17.2156 100.336 17.0824 100.695 16.8161C101.054 16.5533 101.233 16.12 101.233 15.5163V13.9663H101.137C101.038 14.1651 100.892 14.3693 100.7 14.5788C100.512 14.7884 100.262 14.9641 99.9494 15.1062C99.6404 15.2482 99.2516 15.3192 98.7828 15.3192C98.1543 15.3192 97.5843 15.1719 97.073 14.8771C96.5652 14.5788 96.1603 14.1349 95.8585 13.5455C95.5602 12.9524 95.411 12.2102 95.411 11.3189C95.411 10.4205 95.5602 9.66229 95.8585 9.04439C96.1603 8.42294 96.5669 7.95241 97.0783 7.63281C97.5897 7.30966 98.1596 7.14808 98.7882 7.14808C99.2676 7.14808 99.6617 7.22976 99.9707 7.39311C100.283 7.55291 100.532 7.74645 100.716 7.97372C100.901 8.19744 101.041 8.40874 101.137 8.6076H101.244V7.25462H103.145V15.5696C103.145 16.2692 102.979 16.848 102.645 17.3061C102.311 17.7642 101.855 18.1069 101.276 18.3342C100.697 18.5614 100.04 18.6751 99.3049 18.6751ZM99.3208 13.8065C99.7292 13.8065 100.077 13.707 100.365 13.5082C100.653 13.3093 100.871 13.0234 101.02 12.6506C101.169 12.2777 101.244 11.8303 101.244 11.3082C101.244 10.7933 101.169 10.3423 101.02 9.95526C100.874 9.56818 100.658 9.26811 100.37 9.05504C100.086 8.83842 99.7363 8.73011 99.3208 8.73011C98.8911 8.73011 98.5325 8.84197 98.2448 9.0657C97.9572 9.28942 97.7406 9.59659 97.595 9.98722C97.4494 10.3743 97.3766 10.8146 97.3766 11.3082C97.3766 11.8089 97.4494 12.2475 97.595 12.6239C97.7441 12.9968 97.9625 13.288 98.2502 13.4975C98.5414 13.7035 98.8982 13.8065 99.3208 13.8065Z" fill="white"/>
<path d="M106.309 15.5536C105.986 15.5536 105.709 15.44 105.479 15.2127C105.248 14.9854 105.134 14.7085 105.138 14.3817C105.134 14.0621 105.248 13.7887 105.479 13.5614C105.709 13.3342 105.986 13.2205 106.309 13.2205C106.622 13.2205 106.894 13.3342 107.124 13.5614C107.359 13.7887 107.478 14.0621 107.481 14.3817C107.478 14.5984 107.421 14.7955 107.311 14.973C107.204 15.1506 107.062 15.2926 106.885 15.3991C106.711 15.5021 106.519 15.5536 106.309 15.5536Z" fill="white"/>
<path d="M113.041 15.5962C112.224 15.5962 111.523 15.4169 110.937 15.0582C110.355 14.6996 109.905 14.2042 109.589 13.5721C109.277 12.9364 109.121 12.2049 109.121 11.3775C109.121 10.5465 109.28 9.81321 109.6 9.17756C109.92 8.53835 110.371 8.04119 110.953 7.68608C111.539 7.32741 112.231 7.14808 113.03 7.14808C113.695 7.14808 114.282 7.2706 114.794 7.51562C115.308 7.7571 115.719 8.09979 116.024 8.54368C116.329 8.98402 116.503 9.49893 116.546 10.0884H114.703C114.628 9.69425 114.451 9.36577 114.17 9.10298C113.893 8.83665 113.522 8.70348 113.057 8.70348C112.663 8.70348 112.317 8.81001 112.018 9.02308C111.72 9.2326 111.487 9.53445 111.321 9.92862C111.157 10.3228 111.076 10.7951 111.076 11.3455C111.076 11.9031 111.157 12.3825 111.321 12.7837C111.484 13.1815 111.713 13.4886 112.008 13.7053C112.306 13.9183 112.656 14.0249 113.057 14.0249C113.341 14.0249 113.595 13.9716 113.819 13.8651C114.046 13.755 114.236 13.5969 114.389 13.391C114.541 13.185 114.646 12.9347 114.703 12.6399H116.546C116.5 13.2188 116.329 13.7319 116.035 14.1793C115.74 14.6232 115.339 14.9712 114.831 15.2234C114.323 15.4719 113.726 15.5962 113.041 15.5962Z" fill="white"/>
<path d="M121.698 15.5962C120.899 15.5962 120.207 15.4205 119.621 15.0689C119.035 14.7173 118.58 14.2255 118.257 13.5934C117.938 12.9613 117.778 12.2227 117.778 11.3775C117.778 10.5323 117.938 9.7919 118.257 9.15625C118.58 8.5206 119.035 8.02699 119.621 7.67543C120.207 7.32386 120.899 7.14808 121.698 7.14808C122.497 7.14808 123.19 7.32386 123.776 7.67543C124.362 8.02699 124.814 8.5206 125.134 9.15625C125.457 9.7919 125.619 10.5323 125.619 11.3775C125.619 12.2227 125.457 12.9613 125.134 13.5934C124.814 14.2255 124.362 14.7173 123.776 15.0689C123.19 15.4205 122.497 15.5962 121.698 15.5962ZM121.709 14.0515C122.142 14.0515 122.504 13.9325 122.796 13.6946C123.087 13.4531 123.303 13.13 123.445 12.7251C123.591 12.3203 123.664 11.8693 123.664 11.3722C123.664 10.8714 123.591 10.4187 123.445 10.0138C123.303 9.60547 123.087 9.28054 122.796 9.03906C122.504 8.79759 122.142 8.67685 121.709 8.67685C121.265 8.67685 120.896 8.79759 120.601 9.03906C120.31 9.28054 120.091 9.60547 119.946 10.0138C119.804 10.4187 119.733 10.8714 119.733 11.3722C119.733 11.8693 119.804 12.3203 119.946 12.7251C120.091 13.13 120.31 13.4531 120.601 13.6946C120.896 13.9325 121.265 14.0515 121.709 14.0515Z" fill="white"/>
<path d="M127.255 15.4364V7.25462H129.098V8.64489H129.194C129.365 8.17614 129.647 7.81037 130.041 7.54759C130.435 7.28125 130.906 7.14808 131.453 7.14808C132.007 7.14808 132.474 7.28303 132.854 7.55291C133.237 7.81925 133.507 8.18324 133.663 8.64489H133.749C133.93 8.19034 134.235 7.82813 134.665 7.55824C135.098 7.2848 135.611 7.14808 136.204 7.14808C136.957 7.14808 137.571 7.38601 138.047 7.86186C138.523 8.33771 138.761 9.03196 138.761 9.9446V15.4364H136.827V10.2429C136.827 9.73509 136.693 9.36399 136.423 9.12962C136.153 8.89169 135.823 8.77273 135.432 8.77273C134.967 8.77273 134.603 8.91832 134.34 9.20952C134.081 9.49716 133.951 9.8718 133.951 10.3335V15.4364H132.06V10.163C132.06 9.74041 131.932 9.40305 131.677 9.15092C131.424 8.89879 131.094 8.77273 130.686 8.77273C130.409 8.77273 130.157 8.84375 129.929 8.9858C129.702 9.12429 129.521 9.32138 129.386 9.57706C129.251 9.82919 129.184 10.1239 129.184 10.4613V15.4364H127.255Z" fill="white"/>
</svg>
